<mxfile host="app.diagrams.net" agent="Mozilla/5.0 (X11; Linux x86_64) AppleWebKit/537.36 (KHTML, like Gecko) Chrome/130.0.0.0 Safari/537.36" version="26.2.12">
  <diagram name="Страница — 1" id="5MnBxVW6T4bRZf9gdQo-">
    <mxGraphModel dx="939" dy="523" grid="1" gridSize="10" guides="1" tooltips="1" connect="1" arrows="1" fold="1" page="1" pageScale="1" pageWidth="827" pageHeight="1169" math="0" shadow="0">
      <root>
        <mxCell id="0" />
        <mxCell id="1" parent="0" />
        <mxCell id="4wjqR3OL42NYLJil27Jn-7" value="" style="ellipse;whiteSpace=wrap;html=1;aspect=fixed;" parent="1" vertex="1">
          <mxGeometry x="270" y="390" width="270" height="270" as="geometry" />
        </mxCell>
        <mxCell id="4wjqR3OL42NYLJil27Jn-1" value="" style="ellipse;whiteSpace=wrap;html=1;" parent="1" vertex="1">
          <mxGeometry x="250" y="140" width="290" height="240" as="geometry" />
        </mxCell>
        <mxCell id="4wjqR3OL42NYLJil27Jn-2" value="Fiber/coroutine/goroutine/etc" style="ellipse;whiteSpace=wrap;html=1;" parent="1" vertex="1">
          <mxGeometry x="270" y="270" width="170" height="80" as="geometry" />
        </mxCell>
        <mxCell id="4wjqR3OL42NYLJil27Jn-3" value="NONBLOCK IO" style="ellipse;whiteSpace=wrap;html=1;" parent="1" vertex="1">
          <mxGeometry x="414" y="220" width="120" height="80" as="geometry" />
        </mxCell>
        <mxCell id="4wjqR3OL42NYLJil27Jn-4" value="ASYNC" style="text;html=1;align=center;verticalAlign=middle;whiteSpace=wrap;rounded=0;" parent="1" vertex="1">
          <mxGeometry x="365" y="140" width="60" height="30" as="geometry" />
        </mxCell>
        <mxCell id="4wjqR3OL42NYLJil27Jn-5" value="Kernel" style="ellipse;whiteSpace=wrap;html=1;" parent="1" vertex="1">
          <mxGeometry x="320" y="450" width="170" height="130" as="geometry" />
        </mxCell>
        <mxCell id="4wjqR3OL42NYLJil27Jn-6" value="IO_URING syscalls" style="text;html=1;align=center;verticalAlign=middle;whiteSpace=wrap;rounded=0;" parent="1" vertex="1">
          <mxGeometry x="360" y="540" width="90" height="30" as="geometry" />
        </mxCell>
        <mxCell id="4wjqR3OL42NYLJil27Jn-8" value="liburing" style="text;html=1;align=center;verticalAlign=middle;whiteSpace=wrap;rounded=0;" parent="1" vertex="1">
          <mxGeometry x="370" y="410" width="60" height="30" as="geometry" />
        </mxCell>
        <mxCell id="4wjqR3OL42NYLJil27Jn-9" value="" style="endArrow=classic;html=1;rounded=0;strokeWidth=4;" parent="1" edge="1">
          <mxGeometry width="50" height="50" relative="1" as="geometry">
            <mxPoint x="450" y="551.68" as="sourcePoint" />
            <mxPoint x="480.75" y="579.9999999999999" as="targetPoint" />
          </mxGeometry>
        </mxCell>
        <mxCell id="4wjqR3OL42NYLJil27Jn-10" value="" style="endArrow=classic;html=1;rounded=0;strokeWidth=4;" parent="1" edge="1">
          <mxGeometry width="50" height="50" relative="1" as="geometry">
            <mxPoint x="404.71000000000004" y="571" as="sourcePoint" />
            <mxPoint x="404.71000000000004" y="599" as="targetPoint" />
          </mxGeometry>
        </mxCell>
        <mxCell id="4wjqR3OL42NYLJil27Jn-11" value="" style="endArrow=classic;html=1;rounded=0;strokeWidth=4;" parent="1" edge="1">
          <mxGeometry width="50" height="50" relative="1" as="geometry">
            <mxPoint x="365" y="550" as="sourcePoint" />
            <mxPoint x="335" y="590" as="targetPoint" />
          </mxGeometry>
        </mxCell>
        <mxCell id="4wjqR3OL42NYLJil27Jn-13" value="" style="endArrow=classic;html=1;rounded=0;strokeWidth=4;" parent="1" edge="1">
          <mxGeometry width="50" height="50" relative="1" as="geometry">
            <mxPoint x="404.71" y="650" as="sourcePoint" />
            <mxPoint x="404.71000000000004" y="688" as="targetPoint" />
          </mxGeometry>
        </mxCell>
        <mxCell id="4wjqR3OL42NYLJil27Jn-14" value="" style="endArrow=classic;html=1;rounded=0;strokeWidth=4;" parent="1" edge="1">
          <mxGeometry width="50" height="50" relative="1" as="geometry">
            <mxPoint x="459.25" y="640" as="sourcePoint" />
            <mxPoint x="490" y="668.3199999999999" as="targetPoint" />
          </mxGeometry>
        </mxCell>
        <mxCell id="4wjqR3OL42NYLJil27Jn-15" value="" style="endArrow=classic;html=1;rounded=0;strokeWidth=4;" parent="1" edge="1">
          <mxGeometry width="50" height="50" relative="1" as="geometry">
            <mxPoint x="350" y="640" as="sourcePoint" />
            <mxPoint x="320" y="680" as="targetPoint" />
          </mxGeometry>
        </mxCell>
        <mxCell id="4wjqR3OL42NYLJil27Jn-16" value="c interface" style="text;html=1;align=center;verticalAlign=middle;whiteSpace=wrap;rounded=0;" parent="1" vertex="1">
          <mxGeometry x="375" y="620" width="60" height="30" as="geometry" />
        </mxCell>
        <mxCell id="idXL19134oBA8lbDRlTb-53" value="read SQE" style="edgeStyle=orthogonalEdgeStyle;rounded=0;orthogonalLoop=1;jettySize=auto;html=1;exitX=0.655;exitY=0.023;exitDx=0;exitDy=0;exitPerimeter=0;fontFamily=Proxima Nova;" parent="1" source="idXL19134oBA8lbDRlTb-1" target="idXL19134oBA8lbDRlTb-46" edge="1">
          <mxGeometry x="0.0008" relative="1" as="geometry">
            <Array as="points">
              <mxPoint x="257" y="773" />
            </Array>
            <mxPoint as="offset" />
          </mxGeometry>
        </mxCell>
        <mxCell id="idXL19134oBA8lbDRlTb-1" value="" style="ellipse;whiteSpace=wrap;html=1;aspect=fixed;strokeColor=#1AB2FB;" parent="1" vertex="1">
          <mxGeometry x="80" y="790" width="270" height="270" as="geometry" />
        </mxCell>
        <mxCell id="idXL19134oBA8lbDRlTb-2" value="" style="ellipse;whiteSpace=wrap;html=1;aspect=fixed;strokeColor=#1AB2FB;" parent="1" vertex="1">
          <mxGeometry x="130" y="840" width="170" height="170" as="geometry" />
        </mxCell>
        <mxCell id="idXL19134oBA8lbDRlTb-3" value="" style="endArrow=none;html=1;rounded=0;entryX=0.437;entryY=0.004;entryDx=0;entryDy=0;entryPerimeter=0;exitX=0.418;exitY=0;exitDx=0;exitDy=0;exitPerimeter=0;strokeColor=#1AB2FB;" parent="1" source="idXL19134oBA8lbDRlTb-2" target="idXL19134oBA8lbDRlTb-1" edge="1">
          <mxGeometry width="50" height="50" relative="1" as="geometry">
            <mxPoint x="150" y="800" as="sourcePoint" />
            <mxPoint x="200" y="750" as="targetPoint" />
          </mxGeometry>
        </mxCell>
        <mxCell id="idXL19134oBA8lbDRlTb-4" value="" style="endArrow=none;html=1;rounded=0;exitX=0.418;exitY=0;exitDx=0;exitDy=0;exitPerimeter=0;strokeColor=#1AB2FB;" parent="1" target="idXL19134oBA8lbDRlTb-1" edge="1">
          <mxGeometry width="50" height="50" relative="1" as="geometry">
            <mxPoint x="253.19" y="849.81" as="sourcePoint" />
            <mxPoint x="250.00021820631258" y="790.0015913683624" as="targetPoint" />
          </mxGeometry>
        </mxCell>
        <mxCell id="idXL19134oBA8lbDRlTb-5" value="" style="endArrow=none;html=1;rounded=0;exitX=0.964;exitY=0.294;exitDx=0;exitDy=0;exitPerimeter=0;strokeColor=#1AB2FB;" parent="1" source="idXL19134oBA8lbDRlTb-2" target="idXL19134oBA8lbDRlTb-1" edge="1">
          <mxGeometry width="50" height="50" relative="1" as="geometry">
            <mxPoint x="297.19" y="894.81" as="sourcePoint" />
            <mxPoint x="320" y="850" as="targetPoint" />
          </mxGeometry>
        </mxCell>
        <mxCell id="idXL19134oBA8lbDRlTb-6" value="" style="endArrow=none;html=1;rounded=0;exitX=0.972;exitY=0.63;exitDx=0;exitDy=0;exitPerimeter=0;strokeColor=#1AB2FB;" parent="1" source="idXL19134oBA8lbDRlTb-2" target="idXL19134oBA8lbDRlTb-1" edge="1">
          <mxGeometry width="50" height="50" relative="1" as="geometry">
            <mxPoint x="300" y="950" as="sourcePoint" />
            <mxPoint x="344" y="930" as="targetPoint" />
          </mxGeometry>
        </mxCell>
        <mxCell id="idXL19134oBA8lbDRlTb-7" value="" style="endArrow=none;html=1;rounded=0;exitX=0.972;exitY=0.63;exitDx=0;exitDy=0;exitPerimeter=0;entryX=1;entryY=1;entryDx=0;entryDy=0;strokeColor=#1AB2FB;" parent="1" target="idXL19134oBA8lbDRlTb-1" edge="1">
          <mxGeometry width="50" height="50" relative="1" as="geometry">
            <mxPoint x="270" y="990" as="sourcePoint" />
            <mxPoint x="320" y="1004" as="targetPoint" />
          </mxGeometry>
        </mxCell>
        <mxCell id="idXL19134oBA8lbDRlTb-8" value="" style="endArrow=none;html=1;rounded=0;exitX=0.972;exitY=0.63;exitDx=0;exitDy=0;exitPerimeter=0;strokeColor=#1AB2FB;" parent="1" target="idXL19134oBA8lbDRlTb-1" edge="1">
          <mxGeometry width="50" height="50" relative="1" as="geometry">
            <mxPoint x="230" y="1010" as="sourcePoint" />
            <mxPoint x="270" y="1040" as="targetPoint" />
          </mxGeometry>
        </mxCell>
        <mxCell id="idXL19134oBA8lbDRlTb-9" value="" style="endArrow=none;html=1;rounded=0;exitX=0.336;exitY=0.963;exitDx=0;exitDy=0;exitPerimeter=0;entryX=0.312;entryY=0.954;entryDx=0;entryDy=0;entryPerimeter=0;strokeColor=#1AB2FB;" parent="1" source="idXL19134oBA8lbDRlTb-2" target="idXL19134oBA8lbDRlTb-1" edge="1">
          <mxGeometry width="50" height="50" relative="1" as="geometry">
            <mxPoint x="160" y="1010" as="sourcePoint" />
            <mxPoint x="168" y="1058" as="targetPoint" />
          </mxGeometry>
        </mxCell>
        <mxCell id="idXL19134oBA8lbDRlTb-10" value="" style="endArrow=none;html=1;rounded=0;exitX=0.121;exitY=0.832;exitDx=0;exitDy=0;exitPerimeter=0;entryX=0.127;entryY=0.827;entryDx=0;entryDy=0;entryPerimeter=0;strokeColor=#1AB2FB;" parent="1" source="idXL19134oBA8lbDRlTb-2" target="idXL19134oBA8lbDRlTb-1" edge="1">
          <mxGeometry width="50" height="50" relative="1" as="geometry">
            <mxPoint x="143" y="970" as="sourcePoint" />
            <mxPoint x="120" y="1014" as="targetPoint" />
          </mxGeometry>
        </mxCell>
        <mxCell id="idXL19134oBA8lbDRlTb-11" value="" style="endArrow=none;html=1;rounded=0;exitX=0.028;exitY=0.669;exitDx=0;exitDy=0;exitPerimeter=0;entryX=0.035;entryY=0.677;entryDx=0;entryDy=0;entryPerimeter=0;strokeColor=#1AB2FB;" parent="1" source="idXL19134oBA8lbDRlTb-2" target="idXL19134oBA8lbDRlTb-1" edge="1">
          <mxGeometry width="50" height="50" relative="1" as="geometry">
            <mxPoint x="130" y="950" as="sourcePoint" />
            <mxPoint x="93" y="982" as="targetPoint" />
          </mxGeometry>
        </mxCell>
        <mxCell id="idXL19134oBA8lbDRlTb-12" value="" style="endArrow=none;html=1;rounded=0;exitX=0.003;exitY=0.459;exitDx=0;exitDy=0;exitPerimeter=0;entryX=0.035;entryY=0.677;entryDx=0;entryDy=0;entryPerimeter=0;strokeColor=#1AB2FB;" parent="1" source="idXL19134oBA8lbDRlTb-2" edge="1">
          <mxGeometry width="50" height="50" relative="1" as="geometry">
            <mxPoint x="126" y="900" as="sourcePoint" />
            <mxPoint x="80" y="919" as="targetPoint" />
          </mxGeometry>
        </mxCell>
        <mxCell id="idXL19134oBA8lbDRlTb-13" value="" style="endArrow=none;html=1;rounded=0;exitX=0.045;exitY=0.271;exitDx=0;exitDy=0;exitPerimeter=0;entryX=0.055;entryY=0.28;entryDx=0;entryDy=0;entryPerimeter=0;strokeColor=#1AB2FB;" parent="1" source="idXL19134oBA8lbDRlTb-2" target="idXL19134oBA8lbDRlTb-1" edge="1">
          <mxGeometry width="50" height="50" relative="1" as="geometry">
            <mxPoint x="151" y="870" as="sourcePoint" />
            <mxPoint x="100" y="871" as="targetPoint" />
          </mxGeometry>
        </mxCell>
        <mxCell id="idXL19134oBA8lbDRlTb-14" value="" style="endArrow=none;html=1;rounded=0;exitX=0.194;exitY=0.103;exitDx=0;exitDy=0;exitPerimeter=0;entryX=0.055;entryY=0.28;entryDx=0;entryDy=0;entryPerimeter=0;strokeColor=#1AB2FB;" parent="1" source="idXL19134oBA8lbDRlTb-2" edge="1">
          <mxGeometry width="50" height="50" relative="1" as="geometry">
            <mxPoint x="173" y="840" as="sourcePoint" />
            <mxPoint x="130" y="820" as="targetPoint" />
          </mxGeometry>
        </mxCell>
        <mxCell id="idXL19134oBA8lbDRlTb-15" value="" style="ellipse;whiteSpace=wrap;html=1;aspect=fixed;strokeColor=#1AB2FB;" parent="1" vertex="1">
          <mxGeometry x="500" y="790" width="270" height="270" as="geometry" />
        </mxCell>
        <mxCell id="idXL19134oBA8lbDRlTb-16" value="" style="ellipse;whiteSpace=wrap;html=1;aspect=fixed;strokeColor=#1AB2FB;" parent="1" vertex="1">
          <mxGeometry x="550" y="840" width="170" height="170" as="geometry" />
        </mxCell>
        <mxCell id="idXL19134oBA8lbDRlTb-17" value="" style="endArrow=none;html=1;rounded=0;entryX=0.437;entryY=0.004;entryDx=0;entryDy=0;entryPerimeter=0;exitX=0.418;exitY=0;exitDx=0;exitDy=0;exitPerimeter=0;strokeColor=#1AB2FB;" parent="1" source="idXL19134oBA8lbDRlTb-16" target="idXL19134oBA8lbDRlTb-15" edge="1">
          <mxGeometry width="50" height="50" relative="1" as="geometry">
            <mxPoint x="570" y="800" as="sourcePoint" />
            <mxPoint x="620" y="750" as="targetPoint" />
          </mxGeometry>
        </mxCell>
        <mxCell id="idXL19134oBA8lbDRlTb-18" value="" style="endArrow=none;html=1;rounded=0;exitX=0.418;exitY=0;exitDx=0;exitDy=0;exitPerimeter=0;strokeColor=#1AB2FB;" parent="1" target="idXL19134oBA8lbDRlTb-15" edge="1">
          <mxGeometry width="50" height="50" relative="1" as="geometry">
            <mxPoint x="673.19" y="849.81" as="sourcePoint" />
            <mxPoint x="670.0002182063126" y="790.0015913683624" as="targetPoint" />
          </mxGeometry>
        </mxCell>
        <mxCell id="idXL19134oBA8lbDRlTb-19" value="" style="endArrow=none;html=1;rounded=0;exitX=0.964;exitY=0.294;exitDx=0;exitDy=0;exitPerimeter=0;strokeColor=#1AB2FB;" parent="1" source="idXL19134oBA8lbDRlTb-16" target="idXL19134oBA8lbDRlTb-15" edge="1">
          <mxGeometry width="50" height="50" relative="1" as="geometry">
            <mxPoint x="717.19" y="894.81" as="sourcePoint" />
            <mxPoint x="740" y="850" as="targetPoint" />
          </mxGeometry>
        </mxCell>
        <mxCell id="idXL19134oBA8lbDRlTb-20" value="" style="endArrow=none;html=1;rounded=0;exitX=0.972;exitY=0.63;exitDx=0;exitDy=0;exitPerimeter=0;strokeColor=#1AB2FB;" parent="1" source="idXL19134oBA8lbDRlTb-16" target="idXL19134oBA8lbDRlTb-15" edge="1">
          <mxGeometry width="50" height="50" relative="1" as="geometry">
            <mxPoint x="720" y="950" as="sourcePoint" />
            <mxPoint x="764" y="930" as="targetPoint" />
          </mxGeometry>
        </mxCell>
        <mxCell id="idXL19134oBA8lbDRlTb-21" value="" style="endArrow=none;html=1;rounded=0;exitX=0.972;exitY=0.63;exitDx=0;exitDy=0;exitPerimeter=0;entryX=1;entryY=1;entryDx=0;entryDy=0;strokeColor=#1AB2FB;" parent="1" target="idXL19134oBA8lbDRlTb-15" edge="1">
          <mxGeometry width="50" height="50" relative="1" as="geometry">
            <mxPoint x="690" y="990" as="sourcePoint" />
            <mxPoint x="740" y="1004" as="targetPoint" />
          </mxGeometry>
        </mxCell>
        <mxCell id="idXL19134oBA8lbDRlTb-22" value="" style="endArrow=none;html=1;rounded=0;exitX=0.972;exitY=0.63;exitDx=0;exitDy=0;exitPerimeter=0;strokeColor=#1AB2FB;" parent="1" target="idXL19134oBA8lbDRlTb-15" edge="1">
          <mxGeometry width="50" height="50" relative="1" as="geometry">
            <mxPoint x="650" y="1010" as="sourcePoint" />
            <mxPoint x="690" y="1040" as="targetPoint" />
          </mxGeometry>
        </mxCell>
        <mxCell id="idXL19134oBA8lbDRlTb-23" value="" style="endArrow=none;html=1;rounded=0;exitX=0.336;exitY=0.963;exitDx=0;exitDy=0;exitPerimeter=0;entryX=0.312;entryY=0.954;entryDx=0;entryDy=0;entryPerimeter=0;strokeColor=#1AB2FB;" parent="1" source="idXL19134oBA8lbDRlTb-16" target="idXL19134oBA8lbDRlTb-15" edge="1">
          <mxGeometry width="50" height="50" relative="1" as="geometry">
            <mxPoint x="580" y="1010" as="sourcePoint" />
            <mxPoint x="588" y="1058" as="targetPoint" />
          </mxGeometry>
        </mxCell>
        <mxCell id="idXL19134oBA8lbDRlTb-24" value="" style="endArrow=none;html=1;rounded=0;exitX=0.121;exitY=0.832;exitDx=0;exitDy=0;exitPerimeter=0;entryX=0.127;entryY=0.827;entryDx=0;entryDy=0;entryPerimeter=0;strokeColor=#1AB2FB;" parent="1" source="idXL19134oBA8lbDRlTb-16" target="idXL19134oBA8lbDRlTb-15" edge="1">
          <mxGeometry width="50" height="50" relative="1" as="geometry">
            <mxPoint x="563" y="970" as="sourcePoint" />
            <mxPoint x="540" y="1014" as="targetPoint" />
          </mxGeometry>
        </mxCell>
        <mxCell id="idXL19134oBA8lbDRlTb-25" value="" style="endArrow=none;html=1;rounded=0;exitX=0.028;exitY=0.669;exitDx=0;exitDy=0;exitPerimeter=0;entryX=0.035;entryY=0.677;entryDx=0;entryDy=0;entryPerimeter=0;strokeColor=#1AB2FB;" parent="1" source="idXL19134oBA8lbDRlTb-16" target="idXL19134oBA8lbDRlTb-15" edge="1">
          <mxGeometry width="50" height="50" relative="1" as="geometry">
            <mxPoint x="550" y="950" as="sourcePoint" />
            <mxPoint x="513" y="982" as="targetPoint" />
          </mxGeometry>
        </mxCell>
        <mxCell id="idXL19134oBA8lbDRlTb-26" value="" style="endArrow=none;html=1;rounded=0;exitX=0.003;exitY=0.459;exitDx=0;exitDy=0;exitPerimeter=0;entryX=0.035;entryY=0.677;entryDx=0;entryDy=0;entryPerimeter=0;strokeColor=#1AB2FB;" parent="1" source="idXL19134oBA8lbDRlTb-16" edge="1">
          <mxGeometry width="50" height="50" relative="1" as="geometry">
            <mxPoint x="546" y="900" as="sourcePoint" />
            <mxPoint x="500" y="919" as="targetPoint" />
          </mxGeometry>
        </mxCell>
        <mxCell id="idXL19134oBA8lbDRlTb-27" value="" style="endArrow=none;html=1;rounded=0;exitX=0.045;exitY=0.271;exitDx=0;exitDy=0;exitPerimeter=0;entryX=0.055;entryY=0.28;entryDx=0;entryDy=0;entryPerimeter=0;strokeColor=#1AB2FB;" parent="1" source="idXL19134oBA8lbDRlTb-16" target="idXL19134oBA8lbDRlTb-15" edge="1">
          <mxGeometry width="50" height="50" relative="1" as="geometry">
            <mxPoint x="571" y="870" as="sourcePoint" />
            <mxPoint x="520" y="871" as="targetPoint" />
          </mxGeometry>
        </mxCell>
        <mxCell id="idXL19134oBA8lbDRlTb-28" value="" style="endArrow=none;html=1;rounded=0;exitX=0.194;exitY=0.103;exitDx=0;exitDy=0;exitPerimeter=0;entryX=0.055;entryY=0.28;entryDx=0;entryDy=0;entryPerimeter=0;strokeColor=#1AB2FB;" parent="1" source="idXL19134oBA8lbDRlTb-16" edge="1">
          <mxGeometry width="50" height="50" relative="1" as="geometry">
            <mxPoint x="593" y="840" as="sourcePoint" />
            <mxPoint x="550" y="820" as="targetPoint" />
          </mxGeometry>
        </mxCell>
        <mxCell id="idXL19134oBA8lbDRlTb-29" value="&lt;span id=&quot;docs-internal-guid-4ea8853c-7fff-0321-4c74-c444f08223ec&quot;&gt;&lt;span style=&quot;font-size: 11pt; background-color: transparent; font-variant-numeric: normal; font-variant-east-asian: normal; font-variant-alternates: normal; font-variant-position: normal; vertical-align: baseline; white-space-collapse: preserve;&quot;&gt;&lt;font face=&quot;Proxima Nova&quot;&gt;Submission queue&lt;/font&gt;&lt;/span&gt;&lt;/span&gt;" style="text;html=1;align=center;verticalAlign=middle;whiteSpace=wrap;rounded=0;fontFamily=Proxima Nova;" parent="1" vertex="1">
          <mxGeometry x="177.5" y="910" width="75" height="30" as="geometry" />
        </mxCell>
        <mxCell id="idXL19134oBA8lbDRlTb-39" value="" style="rounded=0;whiteSpace=wrap;html=1;fillColor=#1E22AA;rotation=15;strokeColor=#d6b656;strokeWidth=0;" parent="1" vertex="1">
          <mxGeometry x="208.88" y="798.54" width="41.12" height="41.46" as="geometry" />
        </mxCell>
        <mxCell id="idXL19134oBA8lbDRlTb-40" value="" style="rounded=0;whiteSpace=wrap;html=1;fillColor=#1E22AA;rotation=45;strokeColor=#d6b656;strokeWidth=0;" parent="1" vertex="1">
          <mxGeometry x="270" y="830" width="41.12" height="41.46" as="geometry" />
        </mxCell>
        <mxCell id="idXL19134oBA8lbDRlTb-41" value="" style="rounded=0;whiteSpace=wrap;html=1;fillColor=#1E22AA;rotation=90;strokeColor=#d6b656;strokeWidth=0;" parent="1" vertex="1">
          <mxGeometry x="300" y="898.54" width="41.12" height="41.46" as="geometry" />
        </mxCell>
        <mxCell id="idXL19134oBA8lbDRlTb-44" value="HEAD" style="endArrow=classic;html=1;rounded=0;strokeColor=#FFCA2B;strokeWidth=4;fontFamily=Proxima Nova;" parent="1" edge="1">
          <mxGeometry x="-0.927" width="50" height="50" relative="1" as="geometry">
            <mxPoint x="240" y="758.54" as="sourcePoint" />
            <mxPoint x="240" y="798.54" as="targetPoint" />
            <mxPoint as="offset" />
          </mxGeometry>
        </mxCell>
        <mxCell id="idXL19134oBA8lbDRlTb-45" value="TAIL" style="endArrow=classic;html=1;rounded=0;strokeColor=#CEE832;strokeWidth=4;fontFamily=Proxima Nova;" parent="1" edge="1">
          <mxGeometry x="-0.927" width="50" height="50" relative="1" as="geometry">
            <mxPoint x="391.12" y="918.98" as="sourcePoint" />
            <mxPoint x="341.12" y="918.98" as="targetPoint" />
            <mxPoint as="offset" />
          </mxGeometry>
        </mxCell>
        <mxCell id="idXL19134oBA8lbDRlTb-46" value="" style="sketch=0;pointerEvents=1;shadow=0;dashed=0;html=1;strokeColor=none;fillColor=#AE2ADE;labelPosition=center;verticalLabelPosition=bottom;verticalAlign=top;align=center;outlineConnect=0;shape=mxgraph.veeam2.linux;" parent="1" vertex="1">
          <mxGeometry x="406" y="756" width="34" height="34" as="geometry" />
        </mxCell>
        <mxCell id="idXL19134oBA8lbDRlTb-47" value="" style="points=[];aspect=fixed;html=1;align=center;shadow=0;dashed=0;fillColor=#AE2ADE;strokeColor=none;shape=mxgraph.alibaba_cloud.user;" parent="1" vertex="1">
          <mxGeometry x="401.5" y="1047" width="43" height="43" as="geometry" />
        </mxCell>
        <mxCell id="idXL19134oBA8lbDRlTb-48" value="" style="rounded=0;whiteSpace=wrap;html=1;fillColor=#1E22AA;rotation=80;strokeColor=#d6b656;strokeWidth=0;" parent="1" vertex="1">
          <mxGeometry x="513.71" y="917.75" width="30" height="41.46" as="geometry" />
        </mxCell>
        <mxCell id="idXL19134oBA8lbDRlTb-49" value="" style="rounded=0;whiteSpace=wrap;html=1;fillColor=#1E22AA;rotation=105;strokeColor=#d6b656;strokeWidth=0;" parent="1" vertex="1">
          <mxGeometry x="513.71" y="876.29" width="30" height="41.46" as="geometry" />
        </mxCell>
        <mxCell id="idXL19134oBA8lbDRlTb-50" value="" style="rounded=0;whiteSpace=wrap;html=1;fillColor=#1E22AA;rotation=125;strokeColor=#d6b656;strokeWidth=0;" parent="1" vertex="1">
          <mxGeometry x="534" y="834.8299999999999" width="30" height="41.46" as="geometry" />
        </mxCell>
        <mxCell id="idXL19134oBA8lbDRlTb-52" value="write CQE" style="edgeStyle=orthogonalEdgeStyle;rounded=0;orthogonalLoop=1;jettySize=auto;html=1;entryX=0.267;entryY=0.054;entryDx=0;entryDy=0;entryPerimeter=0;fontFamily=Proxima Nova;" parent="1" source="idXL19134oBA8lbDRlTb-46" target="idXL19134oBA8lbDRlTb-15" edge="1">
          <mxGeometry relative="1" as="geometry">
            <Array as="points">
              <mxPoint x="572" y="773" />
            </Array>
          </mxGeometry>
        </mxCell>
        <mxCell id="idXL19134oBA8lbDRlTb-54" value="read CQE" style="edgeStyle=orthogonalEdgeStyle;rounded=0;orthogonalLoop=1;jettySize=auto;html=1;entryX=1.047;entryY=0.505;entryDx=0;entryDy=0;entryPerimeter=0;fontFamily=Proxima Nova;" parent="1" source="idXL19134oBA8lbDRlTb-15" target="idXL19134oBA8lbDRlTb-47" edge="1">
          <mxGeometry relative="1" as="geometry">
            <Array as="points">
              <mxPoint x="472" y="950" />
              <mxPoint x="472" y="1069" />
            </Array>
          </mxGeometry>
        </mxCell>
        <mxCell id="idXL19134oBA8lbDRlTb-55" value="write SQE" style="edgeStyle=orthogonalEdgeStyle;rounded=0;orthogonalLoop=1;jettySize=auto;html=1;entryX=0.954;entryY=0.728;entryDx=0;entryDy=0;entryPerimeter=0;fontFamily=Proxima Nova;" parent="1" source="idXL19134oBA8lbDRlTb-47" target="idXL19134oBA8lbDRlTb-1" edge="1">
          <mxGeometry relative="1" as="geometry" />
        </mxCell>
        <mxCell id="idXL19134oBA8lbDRlTb-56" value="HEAD" style="endArrow=classic;html=1;rounded=0;strokeColor=#FFCA2B;strokeWidth=4;fontFamily=Proxima Nova;" parent="1" edge="1">
          <mxGeometry x="-0.927" width="50" height="50" relative="1" as="geometry">
            <mxPoint x="460" y="939.31" as="sourcePoint" />
            <mxPoint x="510" y="939.31" as="targetPoint" />
            <mxPoint as="offset" />
          </mxGeometry>
        </mxCell>
        <mxCell id="idXL19134oBA8lbDRlTb-57" value="TAIL" style="endArrow=classic;html=1;rounded=0;strokeColor=#CEE832;strokeWidth=4;entryX=0.101;entryY=0.223;entryDx=0;entryDy=0;entryPerimeter=0;fontFamily=Proxima Nova;" parent="1" edge="1">
          <mxGeometry x="-0.9012" y="14" width="50" height="50" relative="1" as="geometry">
            <mxPoint x="486.73" y="809.79" as="sourcePoint" />
            <mxPoint x="534" y="839.9999999999998" as="targetPoint" />
            <mxPoint as="offset" />
            <Array as="points">
              <mxPoint x="516.73" y="829.79" />
            </Array>
          </mxGeometry>
        </mxCell>
        <mxCell id="U0DOwcSD0p0kCqrb6wji-14" style="edgeStyle=orthogonalEdgeStyle;rounded=0;orthogonalLoop=1;jettySize=auto;html=1;exitX=0.5;exitY=1;exitDx=0;exitDy=0;entryX=0.5;entryY=0;entryDx=0;entryDy=0;" edge="1" parent="1" source="U0DOwcSD0p0kCqrb6wji-1" target="U0DOwcSD0p0kCqrb6wji-3">
          <mxGeometry relative="1" as="geometry" />
        </mxCell>
        <mxCell id="U0DOwcSD0p0kCqrb6wji-1" value="Create server socket&lt;div&gt;and epoll instance&lt;/div&gt;" style="rounded=1;whiteSpace=wrap;html=1;" vertex="1" parent="1">
          <mxGeometry x="275" y="1430" width="120" height="60" as="geometry" />
        </mxCell>
        <mxCell id="U0DOwcSD0p0kCqrb6wji-15" style="edgeStyle=orthogonalEdgeStyle;rounded=0;orthogonalLoop=1;jettySize=auto;html=1;exitX=0.5;exitY=0.5;exitDx=0;exitDy=15;exitPerimeter=0;entryX=0.5;entryY=0;entryDx=0;entryDy=0;" edge="1" parent="1" source="U0DOwcSD0p0kCqrb6wji-2" target="U0DOwcSD0p0kCqrb6wji-1">
          <mxGeometry relative="1" as="geometry" />
        </mxCell>
        <mxCell id="U0DOwcSD0p0kCqrb6wji-2" value="Echo-server" style="html=1;dashed=0;whiteSpace=wrap;shape=mxgraph.dfd.start" vertex="1" parent="1">
          <mxGeometry x="290" y="1380" width="90" height="30" as="geometry" />
        </mxCell>
        <mxCell id="U0DOwcSD0p0kCqrb6wji-3" value="server socket -&amp;gt; epoll" style="rounded=1;whiteSpace=wrap;html=1;" vertex="1" parent="1">
          <mxGeometry x="275" y="1510" width="120" height="60" as="geometry" />
        </mxCell>
        <mxCell id="U0DOwcSD0p0kCqrb6wji-5" style="edgeStyle=orthogonalEdgeStyle;rounded=0;orthogonalLoop=1;jettySize=auto;html=1;entryX=0.5;entryY=0;entryDx=0;entryDy=0;exitX=0.5;exitY=1;exitDx=0;exitDy=0;exitPerimeter=0;" edge="1" parent="1" source="U0DOwcSD0p0kCqrb6wji-4" target="U0DOwcSD0p0kCqrb6wji-6">
          <mxGeometry relative="1" as="geometry">
            <mxPoint x="430" y="1680" as="targetPoint" />
            <Array as="points">
              <mxPoint x="335" y="1630" />
              <mxPoint x="335" y="1630" />
            </Array>
          </mxGeometry>
        </mxCell>
        <mxCell id="U0DOwcSD0p0kCqrb6wji-4" value="event in epoll" style="html=1;dashed=0;whiteSpace=wrap;shape=mxgraph.dfd.loop" vertex="1" parent="1">
          <mxGeometry x="280" y="1590" width="110" height="30" as="geometry" />
        </mxCell>
        <mxCell id="U0DOwcSD0p0kCqrb6wji-9" value="Client socket&amp;nbsp;&lt;div&gt;ready to read&lt;/div&gt;" style="edgeStyle=orthogonalEdgeStyle;rounded=0;orthogonalLoop=1;jettySize=auto;html=1;exitX=0;exitY=0.5;exitDx=0;exitDy=0;entryX=0.5;entryY=0;entryDx=0;entryDy=0;" edge="1" parent="1" source="U0DOwcSD0p0kCqrb6wji-6" target="U0DOwcSD0p0kCqrb6wji-8">
          <mxGeometry x="0.1" y="-20" relative="1" as="geometry">
            <mxPoint as="offset" />
          </mxGeometry>
        </mxCell>
        <mxCell id="U0DOwcSD0p0kCqrb6wji-10" value="New connect" style="edgeStyle=orthogonalEdgeStyle;rounded=0;orthogonalLoop=1;jettySize=auto;html=1;exitX=1;exitY=0.5;exitDx=0;exitDy=0;entryX=0.5;entryY=0;entryDx=0;entryDy=0;" edge="1" parent="1" source="U0DOwcSD0p0kCqrb6wji-6" target="U0DOwcSD0p0kCqrb6wji-7">
          <mxGeometry x="0.5294" y="-20" relative="1" as="geometry">
            <mxPoint x="20" y="-20" as="offset" />
          </mxGeometry>
        </mxCell>
        <mxCell id="U0DOwcSD0p0kCqrb6wji-6" value="event type" style="rhombus;whiteSpace=wrap;html=1;" vertex="1" parent="1">
          <mxGeometry x="290" y="1660" width="90" height="80" as="geometry" />
        </mxCell>
        <mxCell id="U0DOwcSD0p0kCqrb6wji-7" value="client socket -&amp;gt; epoll" style="rounded=1;whiteSpace=wrap;html=1;" vertex="1" parent="1">
          <mxGeometry x="380" y="1720" width="120" height="60" as="geometry" />
        </mxCell>
        <mxCell id="U0DOwcSD0p0kCqrb6wji-12" style="edgeStyle=orthogonalEdgeStyle;rounded=0;orthogonalLoop=1;jettySize=auto;html=1;exitX=0.5;exitY=1;exitDx=0;exitDy=0;" edge="1" parent="1" source="U0DOwcSD0p0kCqrb6wji-8">
          <mxGeometry relative="1" as="geometry">
            <mxPoint x="215" y="1800" as="targetPoint" />
          </mxGeometry>
        </mxCell>
        <mxCell id="U0DOwcSD0p0kCqrb6wji-8" value="&lt;div&gt;client socket -&amp;gt; buffer&lt;/div&gt;&lt;div&gt;buffer -&amp;gt; client socket&lt;/div&gt;" style="rounded=1;whiteSpace=wrap;html=1;" vertex="1" parent="1">
          <mxGeometry x="155" y="1720" width="120" height="60" as="geometry" />
        </mxCell>
        <mxCell id="U0DOwcSD0p0kCqrb6wji-11" style="edgeStyle=orthogonalEdgeStyle;rounded=0;orthogonalLoop=1;jettySize=auto;html=1;exitX=0.5;exitY=1;exitDx=0;exitDy=0;entryX=0;entryY=0.539;entryDx=0;entryDy=0;entryPerimeter=0;" edge="1" parent="1" source="U0DOwcSD0p0kCqrb6wji-7" target="U0DOwcSD0p0kCqrb6wji-4">
          <mxGeometry relative="1" as="geometry">
            <Array as="points">
              <mxPoint x="440" y="1800" />
              <mxPoint x="130" y="1800" />
              <mxPoint x="130" y="1606" />
            </Array>
          </mxGeometry>
        </mxCell>
        <mxCell id="U0DOwcSD0p0kCqrb6wji-13" style="edgeStyle=orthogonalEdgeStyle;rounded=0;orthogonalLoop=1;jettySize=auto;html=1;exitX=0.5;exitY=1;exitDx=0;exitDy=0;entryX=0.5;entryY=0;entryDx=0;entryDy=0;entryPerimeter=0;" edge="1" parent="1" source="U0DOwcSD0p0kCqrb6wji-3" target="U0DOwcSD0p0kCqrb6wji-4">
          <mxGeometry relative="1" as="geometry" />
        </mxCell>
        <mxCell id="U0DOwcSD0p0kCqrb6wji-56" style="edgeStyle=orthogonalEdgeStyle;rounded=0;orthogonalLoop=1;jettySize=auto;html=1;exitX=0.5;exitY=0.5;exitDx=0;exitDy=15;exitPerimeter=0;entryX=0.5;entryY=0;entryDx=0;entryDy=0;" edge="1" parent="1" source="U0DOwcSD0p0kCqrb6wji-31" target="U0DOwcSD0p0kCqrb6wji-32">
          <mxGeometry relative="1" as="geometry" />
        </mxCell>
        <mxCell id="U0DOwcSD0p0kCqrb6wji-31" value="Echo-server" style="html=1;dashed=0;whiteSpace=wrap;shape=mxgraph.dfd.start" vertex="1" parent="1">
          <mxGeometry x="70" y="1860" width="200" height="30" as="geometry" />
        </mxCell>
        <mxCell id="U0DOwcSD0p0kCqrb6wji-57" style="edgeStyle=orthogonalEdgeStyle;rounded=0;orthogonalLoop=1;jettySize=auto;html=1;exitX=0.5;exitY=1;exitDx=0;exitDy=0;entryX=0.5;entryY=0;entryDx=0;entryDy=0;" edge="1" parent="1" source="U0DOwcSD0p0kCqrb6wji-32" target="U0DOwcSD0p0kCqrb6wji-58">
          <mxGeometry relative="1" as="geometry" />
        </mxCell>
        <mxCell id="U0DOwcSD0p0kCqrb6wji-32" value="&lt;font style=&quot;font-size: 11px;&quot;&gt;Create server socket and io_uring instance&lt;/font&gt;" style="rounded=1;whiteSpace=wrap;html=1;" vertex="1" parent="1">
          <mxGeometry x="70" y="1910" width="200" height="60" as="geometry" />
        </mxCell>
        <mxCell id="U0DOwcSD0p0kCqrb6wji-55" style="edgeStyle=orthogonalEdgeStyle;rounded=0;orthogonalLoop=1;jettySize=auto;html=1;exitX=0.5;exitY=1;exitDx=0;exitDy=0;entryX=0.5;entryY=0;entryDx=0;entryDy=0;" edge="1" parent="1" source="U0DOwcSD0p0kCqrb6wji-33" target="U0DOwcSD0p0kCqrb6wji-34">
          <mxGeometry relative="1" as="geometry" />
        </mxCell>
        <mxCell id="U0DOwcSD0p0kCqrb6wji-33" value="&lt;font style=&quot;font-size: 11px;&quot;&gt;SQE = {OP_ACCEPT, server socket fd}&lt;br&gt;&lt;/font&gt;&lt;div&gt;&lt;font style=&quot;font-size: 11px;&quot;&gt;&lt;span style=&quot;background-color: transparent; color: light-dark(rgb(0, 0, 0), rgb(255, 255, 255));&quot;&gt;SQE&lt;/span&gt;&amp;nbsp;-&amp;gt; io_uring&lt;/font&gt;&lt;/div&gt;" style="rounded=1;whiteSpace=wrap;html=1;" vertex="1" parent="1">
          <mxGeometry x="70" y="2069.97" width="200" height="60" as="geometry" />
        </mxCell>
        <mxCell id="U0DOwcSD0p0kCqrb6wji-52" style="edgeStyle=orthogonalEdgeStyle;rounded=0;orthogonalLoop=1;jettySize=auto;html=1;exitX=0.5;exitY=1;exitDx=0;exitDy=0;entryX=0.5;entryY=0;entryDx=0;entryDy=0;entryPerimeter=0;" edge="1" parent="1" source="U0DOwcSD0p0kCqrb6wji-34">
          <mxGeometry relative="1" as="geometry">
            <mxPoint x="170" y="2249.97" as="targetPoint" />
          </mxGeometry>
        </mxCell>
        <mxCell id="U0DOwcSD0p0kCqrb6wji-34" value="&lt;font style=&quot;font-size: 11px;&quot;&gt;io_uring.Submit()&lt;/font&gt;" style="rounded=1;whiteSpace=wrap;html=1;" vertex="1" parent="1">
          <mxGeometry x="70" y="2159.97" width="200" height="60" as="geometry" />
        </mxCell>
        <mxCell id="U0DOwcSD0p0kCqrb6wji-38" style="edgeStyle=orthogonalEdgeStyle;rounded=0;orthogonalLoop=1;jettySize=auto;html=1;exitX=0.5;exitY=1;exitDx=0;exitDy=0;exitPerimeter=0;entryX=0.5;entryY=0;entryDx=0;entryDy=0;" edge="1" parent="1" source="U0DOwcSD0p0kCqrb6wji-35">
          <mxGeometry relative="1" as="geometry">
            <mxPoint x="477.73000000000025" y="1970" as="targetPoint" />
          </mxGeometry>
        </mxCell>
        <mxCell id="U0DOwcSD0p0kCqrb6wji-35" value="&lt;font style=&quot;font-size: 11px;&quot;&gt;CQE in io_uring.WaitCQE()&lt;/font&gt;" style="html=1;dashed=0;whiteSpace=wrap;shape=mxgraph.dfd.loop" vertex="1" parent="1">
          <mxGeometry x="399.23" y="1920" width="161" height="30" as="geometry" />
        </mxCell>
        <mxCell id="U0DOwcSD0p0kCqrb6wji-43" style="edgeStyle=orthogonalEdgeStyle;rounded=0;orthogonalLoop=1;jettySize=auto;html=1;exitX=0.5;exitY=1;exitDx=0;exitDy=0;entryX=0;entryY=0.5;entryDx=0;entryDy=0;" edge="1" parent="1" source="U0DOwcSD0p0kCqrb6wji-39" target="U0DOwcSD0p0kCqrb6wji-42">
          <mxGeometry relative="1" as="geometry" />
        </mxCell>
        <mxCell id="U0DOwcSD0p0kCqrb6wji-44" style="edgeStyle=orthogonalEdgeStyle;rounded=0;orthogonalLoop=1;jettySize=auto;html=1;exitX=0.5;exitY=1;exitDx=0;exitDy=0;entryX=0;entryY=0.5;entryDx=0;entryDy=0;" edge="1" parent="1" source="U0DOwcSD0p0kCqrb6wji-39" target="U0DOwcSD0p0kCqrb6wji-40">
          <mxGeometry relative="1" as="geometry" />
        </mxCell>
        <mxCell id="U0DOwcSD0p0kCqrb6wji-45" style="edgeStyle=orthogonalEdgeStyle;rounded=0;orthogonalLoop=1;jettySize=auto;html=1;exitX=0.5;exitY=1;exitDx=0;exitDy=0;entryX=0;entryY=0.5;entryDx=0;entryDy=0;" edge="1" parent="1" source="U0DOwcSD0p0kCqrb6wji-39" target="U0DOwcSD0p0kCqrb6wji-41">
          <mxGeometry relative="1" as="geometry" />
        </mxCell>
        <mxCell id="U0DOwcSD0p0kCqrb6wji-39" value="&lt;font style=&quot;font-size: 11px;&quot;&gt;sockState[CQE.fd]&lt;/font&gt;" style="rhombus;whiteSpace=wrap;html=1;" vertex="1" parent="1">
          <mxGeometry x="397.73" y="1970" width="160" height="60" as="geometry" />
        </mxCell>
        <mxCell id="U0DOwcSD0p0kCqrb6wji-48" style="edgeStyle=orthogonalEdgeStyle;rounded=0;orthogonalLoop=1;jettySize=auto;html=1;exitX=1;exitY=0.5;exitDx=0;exitDy=0;" edge="1" parent="1" source="U0DOwcSD0p0kCqrb6wji-40">
          <mxGeometry relative="1" as="geometry">
            <mxPoint x="477.73" y="2300" as="targetPoint" />
            <Array as="points">
              <mxPoint x="727.73" y="2080" />
              <mxPoint x="727.73" y="2300" />
            </Array>
          </mxGeometry>
        </mxCell>
        <mxCell id="U0DOwcSD0p0kCqrb6wji-40" value="&lt;div&gt;&lt;font style=&quot;font-size: 11px;&quot;&gt;SQE {OP_RECV, res} -&amp;gt; io_uring&lt;/font&gt;&lt;/div&gt;&lt;div&gt;&lt;font style=&quot;font-size: 11px;&quot;&gt;sockState[res] = READ&lt;/font&gt;&lt;/div&gt;" style="rounded=1;whiteSpace=wrap;html=1;" vertex="1" parent="1">
          <mxGeometry x="512.73" y="2050" width="197.27" height="60" as="geometry" />
        </mxCell>
        <mxCell id="U0DOwcSD0p0kCqrb6wji-49" style="edgeStyle=orthogonalEdgeStyle;rounded=0;orthogonalLoop=1;jettySize=auto;html=1;exitX=1;exitY=0.5;exitDx=0;exitDy=0;" edge="1" parent="1" source="U0DOwcSD0p0kCqrb6wji-41">
          <mxGeometry relative="1" as="geometry">
            <mxPoint x="727.73" y="2160.3333333333335" as="targetPoint" />
          </mxGeometry>
        </mxCell>
        <mxCell id="U0DOwcSD0p0kCqrb6wji-41" value="&lt;div&gt;&lt;div&gt;&lt;font style=&quot;font-size: 11px;&quot;&gt;SQE {OP_SEND, CQE.fd } -&amp;gt; io_uring&lt;/font&gt;&lt;/div&gt;&lt;/div&gt;&lt;div&gt;&lt;div&gt;&lt;font style=&quot;font-size: 11px;&quot;&gt;sockState[CQE.fd] = WRITE&lt;/font&gt;&lt;/div&gt;&lt;/div&gt;" style="rounded=1;whiteSpace=wrap;html=1;" vertex="1" parent="1">
          <mxGeometry x="512.73" y="2130" width="197.27" height="60" as="geometry" />
        </mxCell>
        <mxCell id="U0DOwcSD0p0kCqrb6wji-50" style="edgeStyle=orthogonalEdgeStyle;rounded=0;orthogonalLoop=1;jettySize=auto;html=1;exitX=1;exitY=0.5;exitDx=0;exitDy=0;" edge="1" parent="1" source="U0DOwcSD0p0kCqrb6wji-42">
          <mxGeometry relative="1" as="geometry">
            <mxPoint x="727.73" y="2250.3333333333335" as="targetPoint" />
          </mxGeometry>
        </mxCell>
        <mxCell id="U0DOwcSD0p0kCqrb6wji-42" value="&lt;div&gt;&lt;div&gt;&lt;font style=&quot;font-size: 11px;&quot;&gt;SQE {OP_RECV, CQE.fd} -&amp;gt; io_uring&lt;/font&gt;&lt;/div&gt;&lt;div&gt;&lt;font style=&quot;font-size: 11px;&quot;&gt;sockState[CQE.fd] = READ&lt;/font&gt;&lt;/div&gt;&lt;/div&gt;" style="rounded=1;whiteSpace=wrap;html=1;" vertex="1" parent="1">
          <mxGeometry x="512.73" y="2220" width="197.27" height="60" as="geometry" />
        </mxCell>
        <mxCell id="U0DOwcSD0p0kCqrb6wji-47" style="edgeStyle=orthogonalEdgeStyle;rounded=0;orthogonalLoop=1;jettySize=auto;html=1;exitX=0.5;exitY=1;exitDx=0;exitDy=0;entryX=0.002;entryY=0.567;entryDx=0;entryDy=0;entryPerimeter=0;" edge="1" parent="1" source="U0DOwcSD0p0kCqrb6wji-39" target="U0DOwcSD0p0kCqrb6wji-35">
          <mxGeometry relative="1" as="geometry">
            <Array as="points">
              <mxPoint x="478" y="2300" />
              <mxPoint x="370" y="2300" />
              <mxPoint x="370" y="1937" />
            </Array>
          </mxGeometry>
        </mxCell>
        <mxCell id="U0DOwcSD0p0kCqrb6wji-54" style="edgeStyle=orthogonalEdgeStyle;rounded=0;orthogonalLoop=1;jettySize=auto;html=1;exitX=0.5;exitY=1;exitDx=0;exitDy=0;exitPerimeter=0;" edge="1" parent="1">
          <mxGeometry relative="1" as="geometry">
            <mxPoint x="170" y="2139.97" as="targetPoint" />
            <mxPoint x="170" y="2279.97" as="sourcePoint" />
            <Array as="points">
              <mxPoint x="171" y="2299.97" />
              <mxPoint x="50" y="2299.97" />
              <mxPoint x="50" y="2139.97" />
            </Array>
          </mxGeometry>
        </mxCell>
        <mxCell id="U0DOwcSD0p0kCqrb6wji-60" style="edgeStyle=orthogonalEdgeStyle;rounded=0;orthogonalLoop=1;jettySize=auto;html=1;exitX=0.5;exitY=1;exitDx=0;exitDy=0;entryX=0.5;entryY=0;entryDx=0;entryDy=0;" edge="1" parent="1" source="U0DOwcSD0p0kCqrb6wji-58" target="U0DOwcSD0p0kCqrb6wji-33">
          <mxGeometry relative="1" as="geometry" />
        </mxCell>
        <mxCell id="U0DOwcSD0p0kCqrb6wji-58" value="&lt;font style=&quot;font-size: 11px;&quot;&gt;sockState[server_socket_fd] = ACCEPT&lt;/font&gt;" style="rounded=1;whiteSpace=wrap;html=1;" vertex="1" parent="1">
          <mxGeometry x="70" y="1990" width="200" height="60" as="geometry" />
        </mxCell>
        <mxCell id="U0DOwcSD0p0kCqrb6wji-61" value="&lt;font style=&quot;font-size: 11px;&quot;&gt;CQE Loop&lt;/font&gt;" style="html=1;dashed=0;whiteSpace=wrap;shape=mxgraph.dfd.start" vertex="1" parent="1">
          <mxGeometry x="70" y="2250" width="200" height="30" as="geometry" />
        </mxCell>
        <mxCell id="U0DOwcSD0p0kCqrb6wji-62" value="CQE Loop" style="html=1;dashed=0;whiteSpace=wrap;shape=mxgraph.dfd.start" vertex="1" parent="1">
          <mxGeometry x="397.73" y="1870" width="164" height="30" as="geometry" />
        </mxCell>
        <mxCell id="U0DOwcSD0p0kCqrb6wji-63" style="edgeStyle=orthogonalEdgeStyle;rounded=0;orthogonalLoop=1;jettySize=auto;html=1;exitX=0.5;exitY=0.5;exitDx=0;exitDy=15;exitPerimeter=0;entryX=0.5;entryY=0;entryDx=0;entryDy=0;entryPerimeter=0;" edge="1" parent="1" source="U0DOwcSD0p0kCqrb6wji-62" target="U0DOwcSD0p0kCqrb6wji-35">
          <mxGeometry relative="1" as="geometry" />
        </mxCell>
      </root>
    </mxGraphModel>
  </diagram>
</mxfile>
